<?xml version="1.0" encoding="UTF-8"?>
<svg version="1.1" xmlns="http://www.w3.org/2000/svg" width="330" height="115">
<path d="M0 0 C108.9 0 217.8 0 330 0 C330 37.95 330 75.9 330 115 C221.1 115 112.2 115 0 115 C0 77.05 0 39.1 0 0 Z " fill="#FDFDFD" transform="translate(0,0)"/>
<path d="M0 0 C48.18 0 96.36 0 146 0 C146 2.31 146 4.62 146 7 C144.78119141 6.98952637 143.56238281 6.97905273 142.30664062 6.96826172 C137.70689937 6.93156957 133.10717052 6.90892387 128.50732422 6.89013672 C126.53106498 6.88018964 124.55482002 6.86662719 122.57861328 6.84912109 C110.51967005 6.74511194 98.9274425 7.15680532 87 9 C85.41832031 9.201698 85.41832031 9.201698 83.8046875 9.4074707 C78.69287777 10.06191604 78.69287777 10.06191604 75 13.4375 C73.65114292 18.24280334 72.74598649 23.06771286 72 28 C72.74121094 27.74605469 73.48242188 27.49210937 74.24609375 27.23046875 C80.78965432 25.09199791 87.22522267 23.44174325 94 22.25 C94.71728271 22.12262451 95.43456543 21.99524902 96.17358398 21.86401367 C99.81736264 21.25264717 103.30475215 20.85565438 107 21 C107.125 28.625 107.125 28.625 106 32 C105.65451261 34.41024633 105.34356807 36.81270789 105.0625 39.23046875 C104.97750244 39.93972 104.89250488 40.64897125 104.80493164 41.37971497 C104.53366805 43.64863625 104.26674005 45.91804291 104 48.1875 C103.82060574 49.69599844 103.64092134 51.20446241 103.4609375 52.71289062 C103.2054284 54.8548763 102.95031173 56.99689899 102.69750977 59.13920593 C102.29687633 62.53295051 101.8838302 65.92458133 101.4519043 69.31445312 C101.07989965 72.34837107 100.83683816 75.26049464 100.8125 78.3125 C100.79832031 79.13363281 100.78414063 79.95476562 100.76953125 80.80078125 C100.8582002 83.29100558 100.8582002 83.29100558 103 86 C103.14245897 88.76655324 103.18769445 91.42653306 103.125 94.1875 C103.11597656 94.93708984 103.10695313 95.68667969 103.09765625 96.45898438 C103.07412578 98.30612654 103.03825561 100.15310412 103 102 C102.01 102 101.02 102 100 102 C100.08378906 102.68707031 100.16757813 103.37414062 100.25390625 104.08203125 C100.40666016 105.43361328 100.40666016 105.43361328 100.5625 106.8125 C100.71912109 108.15248047 100.71912109 108.15248047 100.87890625 109.51953125 C101 112 101 112 100 115 C67 115 34 115 0 115 C0 77.05 0 39.1 0 0 Z " fill="#EB9639" transform="translate(0,0)"/>
<path d="M0 0 C22.77 0 45.54 0 69 0 C69 6.7627065 68.71237343 8.46223757 66 14 C65.13375 13.835 64.2675 13.67 63.375 13.5 C54.59867164 12.28454108 44.84949105 11.43302339 37 16 C32.24158054 21.53098512 30.86431961 27.64838284 29.75 34.6875 C29.51023437 36.07291992 29.51023437 36.07291992 29.265625 37.48632812 C28.96951766 39.20004935 28.68048431 40.91502149 28.40136719 42.6315918 C27.98323434 45.09893165 27.50168991 47.54841228 27 50 C27.53294678 49.80301514 28.06589355 49.60603027 28.61499023 49.40307617 C34.38780993 47.36219294 40.00783723 46.16024544 46.0625 45.3125 C46.90876953 45.18294922 47.75503906 45.05339844 48.62695312 44.91992188 C63.03415303 42.82049182 63.03415303 42.82049182 70 47 C70.05395478 48.62463842 70.09277195 50.24978541 70.125 51.875 C70.14820312 52.77992187 70.17140625 53.68484375 70.1953125 54.6171875 C70 57 70 57 68 59 C65.64013672 59.17944336 65.64013672 59.17944336 62.6796875 59.08984375 C61.59373291 59.06736572 60.50777832 59.0448877 59.38891602 59.02172852 C57.64952759 58.9800354 57.64952759 58.9800354 55.875 58.9375 C48.04595691 58.85953755 40.30553539 58.78683817 32.5625 60.0625 C31.34691406 60.25972656 30.13132812 60.45695312 28.87890625 60.66015625 C25.75257372 61.79562533 25.75257372 61.79562533 24.16015625 64.9609375 C22.53136053 69.69964067 22.22121629 74.59431724 21.875 79.5625 C21.79644775 80.55523926 21.71789551 81.54797852 21.63696289 82.57080078 C21.01438102 90.78939974 20.61632532 99.01886392 20.34130859 107.25610352 C20.3098877 108.12807373 20.2784668 109.00004395 20.24609375 109.8984375 C20.22216553 110.66849121 20.1982373 111.43854492 20.17358398 112.23193359 C20 114 20 114 19 115 C12.73 115 6.46 115 0 115 C0 77.05 0 39.1 0 0 Z " fill="#FDFBF5" transform="translate(0,0)"/>
<path d="M0 0 C0 20.13 0 40.26 0 61 C2.64 61.33 5.28 61.66 8 62 C8 63.65 8 65.3 8 67 C6.02 67 4.04 67 2 67 C4.81704235 68.94341516 4.81704235 68.94341516 7.1875 70.1875 C9 72 9 72 9.4375 75.5 C9 79 9 79 7.875 80.9375 C6 82 6 82 0 82 C0 86.29 0 90.58 0 95 C-12.54 95 -25.08 95 -38 95 C-38 89.72 -38 84.44 -38 79 C-38.66 78.34 -39.32 77.68 -40 77 C-40.37109375 74.79296875 -40.37109375 74.79296875 -40.4375 72.1875 C-40.49744141 70.90939453 -40.49744141 70.90939453 -40.55859375 69.60546875 C-40 67 -40 67 -37.53125 64.5703125 C-34.44218504 61.43357679 -34.34684901 60.01259817 -34.0625 55.6875 C-33.42355165 48.5690882 -31.77975409 41.89607788 -29.9375 35 C-25.53063024 19.60358621 -25.53063024 19.60358621 -27 4 C-28.97901574 1.77022004 -28.97901574 1.77022004 -31 0 C-20.7705219 -1.46135401 -10.32437509 -0.4301823 0 0 Z " fill="#EC9638" transform="translate(146,20)"/>
<path d="M0 0 C0 20.13 0 40.26 0 61 C2.64 61.33 5.28 61.66 8 62 C8 63.65 8 65.3 8 67 C6.02 67 4.04 67 2 67 C4.81704235 68.94341516 4.81704235 68.94341516 7.1875 70.1875 C9 72 9 72 9.4375 75.5 C9 79 9 79 7.875 80.9375 C6 82 6 82 0 82 C0 86.29 0 90.58 0 95 C-12.54 95 -25.08 95 -38 95 C-38 89.72 -38 84.44 -38 79 C-38.66 78.34 -39.32 77.68 -40 77 C-40.37109375 74.79296875 -40.37109375 74.79296875 -40.4375 72.1875 C-40.49744141 70.90939453 -40.49744141 70.90939453 -40.55859375 69.60546875 C-40 67 -40 67 -37.546875 64.63671875 C-34.30520698 61.28069741 -34.20834411 59.2167917 -33.8125 54.625 C-33.3341758 49.46330365 -32.54513165 44.92153044 -31 40 C-30.67 40 -30.34 40 -30 40 C-30.33 46.27 -30.66 52.54 -31 59 C-30.01 59 -29.02 59 -28 59 C-28 59.66 -28 60.32 -28 61 C-26.02 61.33 -24.04 61.66 -22 62 C-21.67 61.01 -21.34 60.02 -21 59 C-16.13845984 58.60313958 -12.3846797 58.4059575 -8.1875 61.125 C-7.135625 61.74375 -6.08375 62.3625 -5 63 C-3.68 62.34 -2.36 61.68 -1 61 C-1 41.2 -1 21.4 -1 1 C-15.27384325 -0.40286332 -15.27384325 -0.40286332 -27 4 C-28.32 2.68 -29.64 1.36 -31 0 C-20.7705219 -1.46135401 -10.32437509 -0.4301823 0 0 Z " fill="#D69A58" transform="translate(146,20)"/>
<path d="M0 0 C11.88 0 23.76 0 36 0 C32.85529866 2.51576107 29.71665908 4.96250569 26.5 7.375 C17.48682918 14.48672116 14.98970633 21.21581145 13.56005859 32.46020508 C13.1089027 37.2118741 12.70467445 41.96404711 12.359375 46.72460938 C12.20082031 48.45614258 12.20082031 48.45614258 12.0390625 50.22265625 C11.95865723 51.26172119 11.87825195 52.30078613 11.79541016 53.37133789 C11 56 11 56 8.54833984 57.66186523 C7.7073877 58.10344971 6.86643555 58.54503418 6 59 C4.17370206 62.06680799 4.17370206 62.06680799 3 65 C5.31 65 7.62 65 10 65 C10.33 81.5 10.66 98 11 115 C7.37 115 3.74 115 0 115 C0 77.05 0 39.1 0 0 Z " fill="#EB9638" transform="translate(0,0)"/>
<path d="M0 0 C1.65 0 3.3 0 5 0 C5.125 7.625 5.125 7.625 4 11 C3.65451261 13.41024633 3.34356807 15.81270789 3.0625 18.23046875 C2.97750244 18.93972 2.89250488 19.64897125 2.80493164 20.37971497 C2.53366805 22.64863625 2.26674005 24.91804291 2 27.1875 C1.82060574 28.69599844 1.64092134 30.20446241 1.4609375 31.71289062 C1.2054284 33.8548763 0.95031173 35.99689899 0.69750977 38.13920593 C0.29687633 41.53295051 -0.1161698 44.92458133 -0.5480957 48.31445312 C-0.92010035 51.34837107 -1.16316184 54.26049464 -1.1875 57.3125 C-1.20167969 58.13363281 -1.21585938 58.95476562 -1.23046875 59.80078125 C-1.1417998 62.29100558 -1.1417998 62.29100558 1 65 C1.14245897 67.76655324 1.18769445 70.42653306 1.125 73.1875 C1.11597656 73.93708984 1.10695312 74.68667969 1.09765625 75.45898438 C1.07412578 77.30612654 1.03825561 79.15310412 1 81 C-1.31 81 -3.62 81 -6 81 C-6 76.71 -6 72.42 -6 68 C-6.99 68 -7.98 68 -9 68 C-8.94779297 69.48113281 -8.94779297 69.48113281 -8.89453125 70.9921875 C-8.86746094 72.27351563 -8.84039062 73.55484375 -8.8125 74.875 C-8.76029297 76.78925781 -8.76029297 76.78925781 -8.70703125 78.7421875 C-8.80371094 79.81726563 -8.90039062 80.89234375 -9 82 C-12 84 -12 84 -15.1875 83.625 C-16.115625 83.41875 -17.04375 83.2125 -18 83 C-18 82.34 -18 81.68 -18 81 C-20.97 81 -23.94 81 -27 81 C-27.495 75.06 -27.495 75.06 -28 69 C-31.96 69 -35.92 69 -40 69 C-40 72.96 -40 76.92 -40 81 C-42.31 81 -44.62 81 -47 81 C-47 71.43 -47 61.86 -47 52 C-42.58625 51.979375 -38.1725 51.95875 -33.625 51.9375 C-32.23361816 51.928396 -30.84223633 51.91929199 -29.40869141 51.90991211 C-28.31733887 51.90741455 -27.22598633 51.90491699 -26.1015625 51.90234375 C-24.42054443 51.89448853 -24.42054443 51.89448853 -22.70556641 51.88647461 C-20 52 -20 52 -18 53 C-18.33 55.31 -18.66 57.62 -19 60 C-11.08 59.505 -11.08 59.505 -3 59 C-3.0395679 54.10846529 -3.0395679 54.10846529 -3.09008789 49.21704102 C-3.09724913 47.47778283 -3.05024702 45.73854696 -3 44 C-2.67 43.67 -2.34 43.34 -2 43 C-1.81127341 40.95933472 -1.67745694 38.91355019 -1.56640625 36.8671875 C-1.07069006 29.22093504 -0.07226354 21.70345612 1.0625 14.125 C1.24876953 12.85269531 1.43503906 11.58039062 1.62695312 10.26953125 C2.0800783 7.17898521 2.53780828 4.08920078 3 1 C2.01 0.67 1.02 0.34 0 0 Z " fill="#C18A5D" transform="translate(102,21)"/>
<path d="M0 0 C0.33 0 0.66 0 1 0 C0.86078125 1.03511719 0.7215625 2.07023437 0.578125 3.13671875 C0.09814017 6.94554944 -0.25011663 10.75725813 -0.578125 14.58203125 C-0.68769531 15.76087891 -0.79726562 16.93972656 -0.91015625 18.15429688 C-1.13838962 20.61108481 -1.34908511 23.06955979 -1.54296875 25.52929688 C-1.65769531 26.70169922 -1.77242187 27.87410156 -1.890625 29.08203125 C-1.98375977 30.14655518 -2.07689453 31.2110791 -2.17285156 32.30786133 C-3 35 -3 35 -5.45605469 36.6706543 C-6.29555664 37.10933838 -7.13505859 37.54802246 -8 38 C-9.82629794 41.06680799 -9.82629794 41.06680799 -11 44 C-8.69 44 -6.38 44 -4 44 C-3.67 60.5 -3.34 77 -3 94 C-6.63 94 -10.26 94 -14 94 C-14.02466273 86.77344005 -14.04284219 79.54690444 -14.05493164 72.3203125 C-14.05996989 69.86034722 -14.0668006 67.40038495 -14.07543945 64.94042969 C-14.08752723 61.41079975 -14.09323329 57.88120931 -14.09765625 54.3515625 C-14.10281754 53.24632233 -14.10797882 52.14108215 -14.11329651 51.00234985 C-14.11337204 49.98144257 -14.11344757 48.96053528 -14.11352539 47.90869141 C-14.115746 47.00712311 -14.11796661 46.10555481 -14.12025452 45.17666626 C-14 43 -14 43 -13 41 C-12.34 41 -11.68 41 -11 41 C-10.67 39.35 -10.34 37.7 -10 36 C-8.02 35.34 -6.04 34.68 -4 34 C-4.02320313 33.22398438 -4.04640625 32.44796875 -4.0703125 31.6484375 C-4.24970039 20.91079084 -3.41388746 10.24166238 0 0 Z " fill="#E79C48" transform="translate(14,21)"/>
<path d="M0 0 C1.65 0 3.3 0 5 0 C5.125 7.625 5.125 7.625 4 11 C3.65451261 13.41024633 3.34356807 15.81270789 3.0625 18.23046875 C2.97750244 18.93972 2.89250488 19.64897125 2.80493164 20.37971497 C2.53366805 22.64863625 2.26674005 24.91804291 2 27.1875 C1.82060574 28.69599844 1.64092134 30.20446241 1.4609375 31.71289062 C1.2054284 33.8548763 0.95031173 35.99689899 0.69750977 38.13920593 C0.29687633 41.53295051 -0.1161698 44.92458133 -0.5480957 48.31445312 C-0.92010035 51.34837107 -1.16316184 54.26049464 -1.1875 57.3125 C-1.20876953 58.54419922 -1.20876953 58.54419922 -1.23046875 59.80078125 C-1.1417998 62.29100558 -1.1417998 62.29100558 1 65 C1.14245897 67.76655324 1.18769445 70.42653306 1.125 73.1875 C1.11597656 73.93708984 1.10695313 74.68667969 1.09765625 75.45898438 C1.07412578 77.30612654 1.03825561 79.15310412 1 81 C-1.31 81 -3.62 81 -6 81 C-6 76.71 -6 72.42 -6 68 C-6.99 68 -7.98 68 -9 68 C-8.96519531 68.98742187 -8.93039063 69.97484375 -8.89453125 70.9921875 C-8.86746094 72.27351563 -8.84039062 73.55484375 -8.8125 74.875 C-8.77769531 76.15117188 -8.74289063 77.42734375 -8.70703125 78.7421875 C-8.80371094 79.81726563 -8.90039062 80.89234375 -9 82 C-12 84 -12 84 -15.1875 83.625 C-16.5796875 83.315625 -16.5796875 83.315625 -18 83 C-18 82.34 -18 81.68 -18 81 C-18.66 81 -19.32 81 -20 81 C-20.02505615 80.19256348 -20.0501123 79.38512695 -20.07592773 78.55322266 C-20.19165487 74.91031083 -20.31448635 71.26767274 -20.4375 67.625 C-20.47681641 66.35398437 -20.51613281 65.08296875 -20.55664062 63.7734375 C-20.59853516 62.56171875 -20.64042969 61.35 -20.68359375 60.1015625 C-20.72025146 58.98088379 -20.75690918 57.86020508 -20.79467773 56.70556641 C-20.82596013 54.03287229 -20.82596013 54.03287229 -22 52 C-20.68 52.33 -19.36 52.66 -18 53 C-18.33 55.31 -18.66 57.62 -19 60 C-11.08 59.505 -11.08 59.505 -3 59 C-3.0395679 54.10846529 -3.0395679 54.10846529 -3.09008789 49.21704102 C-3.09724913 47.47778283 -3.05024702 45.73854696 -3 44 C-2.67 43.67 -2.34 43.34 -2 43 C-1.81127341 40.95933472 -1.67745694 38.91355019 -1.56640625 36.8671875 C-1.07069006 29.22093504 -0.07226354 21.70345612 1.0625 14.125 C1.24876953 12.85269531 1.43503906 11.58039062 1.62695312 10.26953125 C2.0800783 7.17898521 2.53780828 4.08920078 3 1 C2.01 0.67 1.02 0.34 0 0 Z " fill="#D49759" transform="translate(102,21)"/>
<path d="M0 0 C8.39898453 -0.13619975 16.6310753 0.27226742 25 1 C25 5.29 25 9.58 25 14 C13.12 14 1.24 14 -11 14 C-11 10.04 -11 6.08 -11 2 C-7.37 2 -3.74 2 0 2 C0 1.34 0 0.68 0 0 Z " fill="#E8963D" transform="translate(121,101)"/>
<path d="M0 0 C0.33 0 0.66 0 1 0 C0.67 6.27 0.34 12.54 0 19 C0.99 19 1.98 19 3 19 C3 19.66 3 20.32 3 21 C4.98 21.33 6.96 21.66 9 22 C9 23.65 9 25.3 9 27 C9.66 26.67 10.32 26.34 11 26 C12.99960012 25.960008 15.00047242 25.95653201 17 26 C17.33 26.99 17.66 27.98 18 29 C16.72125 29.12375 15.4425 29.2475 14.125 29.375 C10.65209064 29.69042399 10.65209064 29.69042399 8 32 C7.65783765 36.65194714 7.65783765 36.65194714 9 41 C8.01 41 7.02 41 6 41 C6 41.66 6 42.32 6 43 C2.37 43 -1.26 43 -5 43 C-5 46.96 -5 50.92 -5 55 C-5.66 54.67 -6.32 54.34 -7 54 C-6.96519531 52.41058594 -6.96519531 52.41058594 -6.9296875 50.7890625 C-6.91093056 49.4010487 -6.89273028 48.0130273 -6.875 46.625 C-6.85824219 45.92632812 -6.84148437 45.22765625 -6.82421875 44.5078125 C-6.80655733 42.67102514 -6.89696739 40.83398037 -7 39 C-7.66 38.34 -8.32 37.68 -9 37 C-9.37109375 34.79296875 -9.37109375 34.79296875 -9.4375 32.1875 C-9.47746094 31.33542969 -9.51742187 30.48335937 -9.55859375 29.60546875 C-9 27 -9 27 -6.546875 24.63671875 C-3.30520698 21.28069741 -3.20834411 19.2167917 -2.8125 14.625 C-2.3341758 9.46330365 -1.54513165 4.92153044 0 0 Z " fill="#C29269" transform="translate(115,60)"/>
<path d="M0 0 C1.65 0 3.3 0 5 0 C5 9.57 5 19.14 5 29 C0.38 29 -4.24 29 -9 29 C-13.21957653 23.72552934 -13.72861816 22.59029575 -13.44140625 16.3828125 C-13 14 -13 14 -11 10.875 C-6.97259374 8.35787109 -4.67942502 8.60343856 0 9 C0 6.03 0 3.06 0 0 Z " fill="#3E5088" transform="translate(276,73)"/>
<path d="M0 0 C3.60906934 2.91797096 5.78377478 5.09721805 6.3125 9.75 C5.92220973 13.80901885 4.50412622 15.83301684 2 19 C-1.46782828 20.73391414 -5.20833321 20.45877819 -9 20 C-11.87572804 18.34645638 -12.68265001 17.10028584 -13.59375 13.94140625 C-14.35837613 9.58156685 -14.27026724 7.52189536 -12.1875 3.5 C-8.71392808 -0.46979648 -5.11343357 -0.90121818 0 0 Z " fill="#425387" transform="translate(217,82)"/>
<path d="M0 0 C3.03215675 2.19831364 3.81654398 3.44963194 5 7 C5.50026351 11.41899435 5.26780669 13.5248591 3.0625 17.4375 C-0.54987568 20.46010006 -2.33672059 20.7731384 -6.91015625 20.46875 C-9.90957133 19.795984 -11.25192088 18.47644542 -13 16 C-14.74601232 12.50797535 -14.55838804 8.81017721 -14 5 C-10.50489945 -0.52451377 -6.10863159 -1.25598033 0 0 Z " fill="#394A86" transform="translate(299,82)"/>
<path d="M0 0 C5.61 0 11.22 0 17 0 C17 1.65 17 3.3 17 5 C13.37 5 9.74 5 6 5 C6 6.98 6 8.96 6 11 C9.63 11 13.26 11 17 11 C17 12.65 17 14.3 17 16 C13.37 16 9.74 16 6 16 C6 20.29 6 24.58 6 29 C4.02 29 2.04 29 0 29 C0 19.43 0 9.86 0 0 Z " fill="#46466E" transform="translate(55,73)"/>
<path d="M0 0 C7.26 0 14.52 0 22 0 C22 1.98 22 3.96 22 6 C19.36 6 16.72 6 14 6 C14 13.59 14 21.18 14 29 C12.02 29 10.04 29 8 29 C8 21.41 8 13.82 8 6 C5.36 6 2.72 6 0 6 C0 4.02 0 2.04 0 0 Z " fill="#44538A" transform="translate(166,73)"/>
<path d="M0 0 C1.93681161 -0.08107583 3.8745934 -0.13922475 5.8125 -0.1875 C6.89144531 -0.22230469 7.97039062 -0.25710937 9.08203125 -0.29296875 C12 0 12 0 13.6640625 1.26757812 C15.28944947 3.37535334 15.35233776 4.37969276 15.29296875 7.01171875 C15.28330078 7.76904297 15.27363281 8.52636719 15.26367188 9.30664062 C15.23853516 10.09232422 15.21339844 10.87800781 15.1875 11.6875 C15.16719727 12.88342773 15.16719727 12.88342773 15.14648438 14.10351562 C15.11117089 16.06929967 15.05736447 18.03473582 15 20 C12.89646505 20.0810206 10.79204048 20.13919907 8.6875 20.1875 C7.51574219 20.22230469 6.34398437 20.25710937 5.13671875 20.29296875 C2 20 2 20 0.10546875 18.70703125 C-1.75624219 15.8322338 -1.35457006 13.3093206 -1 10 C0.0625 8.0625 0.0625 8.0625 2 7 C5.6875 6.8125 5.6875 6.8125 9 7 C8.67 6.34 8.34 5.68 8 5 C5.36 5 2.72 5 0 5 C0 3.35 0 1.7 0 0 Z " fill="#4E5C91" transform="translate(245,82)"/>
<path d="M0 0 C1.76949095 -0.10815225 3.54087487 -0.18566083 5.3125 -0.25 C6.29863281 -0.29640625 7.28476563 -0.3428125 8.30078125 -0.390625 C11 0 11 0 12.8125 1.5 C14.47914064 5.00871715 14.56953184 8.43457278 14.6875 12.25 C14.73874023 13.36761719 14.73874023 13.36761719 14.79101562 14.5078125 C14.87314054 16.33802492 14.93825653 18.16898669 15 20 C12.72975032 20.08097324 10.45867925 20.13917704 8.1875 20.1875 C6.29064453 20.23970703 6.29064453 20.23970703 4.35546875 20.29296875 C1 20 1 20 -0.92578125 18.70703125 C-2.74109309 15.82233571 -2.35319931 13.29652689 -2 10 C-1 8.0625 -1 8.0625 1 7 C3.71882023 6.76404716 6.25957022 6.86522477 9 7 C8.67 6.34 8.34 5.68 8 5 C5.36 5 2.72 5 0 5 C0 3.35 0 1.7 0 0 Z " fill="#4C496A" transform="translate(124,82)"/>
<path d="M0 0 C13.36642336 -0.49051095 13.36642336 -0.49051095 15.9375 1.5 C17.45256005 5.06484717 17.3183228 8.45278437 17.1875 12.25 C17.16719727 13.36761719 17.16719727 13.36761719 17.14648438 14.5078125 C17.11127204 16.33885416 17.05746851 18.16952169 17 20 C15.02 20 13.04 20 11 20 C10.67 15.38 10.34 10.76 10 6 C8.35 6 6.7 6 5 6 C5 10.62 5 15.24 5 20 C3.35 20 1.7 20 0 20 C0 13.4 0 6.8 0 0 Z " fill="#454770" transform="translate(86,82)"/>
<path d="M0 0 C1.98 0 3.96 0 6 0 C6.99 2.64 7.98 5.28 9 8 C10.32 5.36 11.64 2.72 13 0 C14.65 0 16.3 0 18 0 C16.63125844 6.95776959 14.5466871 13.38603107 12 20 C10.02 20 8.04 20 6 20 C4.99422987 17.23113877 3.99519853 14.46015896 3 11.6875 C2.71382812 10.90181641 2.42765625 10.11613281 2.1328125 9.30664062 C1.86210937 8.54931641 1.59140625 7.79199219 1.3125 7.01171875 C1.06113281 6.31522217 0.80976563 5.61872559 0.55078125 4.90112305 C0 3 0 3 0 0 Z " fill="#445489" transform="translate(224,82)"/>
<path d="M0 0 C0.90492188 0.02320312 1.80984375 0.04640625 2.7421875 0.0703125 C4.10730469 0.09738281 4.10730469 0.09738281 5.5 0.125 C6.19867188 0.14820312 6.89734375 0.17140625 7.6171875 0.1953125 C7.6171875 1.8453125 7.6171875 3.4953125 7.6171875 5.1953125 C5.6371875 5.1953125 3.6571875 5.1953125 1.6171875 5.1953125 C4.43422985 7.13872766 4.43422985 7.13872766 6.8046875 8.3828125 C8.6171875 10.1953125 8.6171875 10.1953125 9.0546875 13.6953125 C8.6171875 17.1953125 8.6171875 17.1953125 7.41015625 18.8984375 C5.00511248 20.63803343 3.43142329 20.53100451 0.4921875 20.4453125 C-0.84199219 20.42210937 -0.84199219 20.42210937 -2.203125 20.3984375 C-4.3828125 20.1953125 -4.3828125 20.1953125 -5.3828125 19.1953125 C-5.42345082 17.52914135 -5.4255335 15.86143155 -5.3828125 14.1953125 C-2.7428125 14.1953125 -0.1028125 14.1953125 2.6171875 14.1953125 C2.9471875 13.5353125 3.2771875 12.8753125 3.6171875 12.1953125 C2.5034375 11.9271875 1.3896875 11.6590625 0.2421875 11.3828125 C-3.3828125 10.1953125 -3.3828125 10.1953125 -5.3828125 7.1953125 C-4.99412171 3.21123191 -4.47217555 0.36657177 0 0 Z " fill="#444F7E" transform="translate(146.3828125,81.8046875)"/>
<path d="M0 0 C0 1.98 0 3.96 0 6 C-2.31 5.67 -4.62 5.34 -7 5 C-7 7.64 -7 10.28 -7 13 C-3.52852158 13.74957157 -3.52852158 13.74957157 0 14 C0 15.98 0 17.96 0 20 C-4.70278047 20.46105691 -7.94613247 20.64522502 -12.0625 18.125 C-14.79376084 13.71974058 -15.00187438 10.05077166 -14 5 C-10.39378553 -0.81647495 -6.2386292 -0.61163031 0 0 Z " fill="#445287" transform="translate(120,82)"/>
<path d="M0 0 C4.29 0 8.58 0 13 0 C13 1.98 13 3.96 13 6 C11.02 6.33 9.04 6.66 7 7 C6.67 11.29 6.34 15.58 6 20 C4.02 20 2.04 20 0 20 C0 13.4 0 6.8 0 0 Z " fill="#384A86" transform="translate(189,82)"/>
<path d="M0 0 C4 0 8 0 12 0 C12 1.98 12 3.96 12 6 C10.35 6.33 8.7 6.66 7 7 C6.67 11.29 6.34 15.58 6 20 C4.02 20 2.04 20 0 20 C0 13.4 0 6.8 0 0 Z " fill="#465689" transform="translate(307,82)"/>
<path d="M0 0 C0.33 0 0.66 0 1 0 C1.1953125 2.01822917 1.390625 4.03645833 1.5859375 6.0546875 C1.86374749 8.22668245 1.86374749 8.22668245 4 10 C4.17163731 12.56292317 4.23264558 15.00345857 4.1875 17.5625 C4.18685547 18.26052734 4.18621094 18.95855469 4.18554688 19.67773438 C4.14031158 24.85968842 4.14031158 24.85968842 3 26 C0.32941149 26.14115161 -2.32432238 26.04247107 -5 26 C-5 21.71 -5 17.42 -5 13 C-4.01 13 -3.02 13 -2 13 C-2 10.36 -2 7.72 -2 5 C-1.67 5 -1.34 5 -1 5 C-0.67 3.35 -0.34 1.7 0 0 Z " fill="#F6F4EE" transform="translate(105,89)"/>
<path d="M0 0 C1.65 0 3.3 0 5 0 C5 9.57 5 19.14 5 29 C3.68 29 2.36 29 1 29 C1 28.34 1 27.68 1 27 C0.34 26.67 -0.32 26.34 -1 26 C-0.67 25.01 -0.34 24.02 0 23 C-0.03015581 19.26067974 -0.22628488 15.99035536 -2.5625 13 C-3.036875 12.67 -3.51125 12.34 -4 12 C-3.01 12 -2.02 12 -1 12 C-0.67 8.04 -0.34 4.08 0 0 Z " fill="#394A84" transform="translate(276,73)"/>
<path d="M0 0 C-3.75 2 -3.75 2 -6 2 C-6 2.66 -6 3.32 -6 4 C-4.35 4 -2.7 4 -1 4 C-0.97311849 5.64574566 -0.95365877 7.29161413 -0.9375 8.9375 C-0.92589844 9.85402344 -0.91429687 10.77054688 -0.90234375 11.71484375 C-1 14 -1 14 -2 15 C-4.33297433 15.04092937 -6.66705225 15.04241723 -9 15 C-10.125 10.25 -10.125 10.25 -9 8 C-9.99 8 -10.98 8 -12 8 C-12.09978121 11.49234244 -11.77842938 14.59437148 -11 18 C-13.71072996 15.40221712 -14.30620043 13.196242 -14.5 9.5625 C-14.3569191 6.09421904 -13.99522263 4.99244868 -12.0625 1.9375 C-7.94841058 -0.66529126 -4.7373412 -0.46444522 0 0 Z " fill="#455588" transform="translate(299,82)"/>
<path d="M0 0 C0.33 0 0.66 0 1 0 C1.33 1.65 1.66 3.3 2 5 C2.99 4.34 3.98 3.68 5 3 C5 10.26 5 17.52 5 25 C3.02 25 1.04 25 -1 25 C-1.02886984 21.02084841 -1.04675406 17.04172347 -1.0625 13.0625 C-1.07087891 11.92619141 -1.07925781 10.78988281 -1.08789062 9.61914062 C-1.09111328 8.53955078 -1.09433594 7.45996094 -1.09765625 6.34765625 C-1.10289307 5.34742432 -1.10812988 4.34719238 -1.11352539 3.31665039 C-1 1 -1 1 0 0 Z " fill="#3B4A83" transform="translate(175,77)"/>
<path d="M0 0 C0 0.99 0 1.98 0 3 C-1.98 3.99 -1.98 3.99 -4 5 C-3.67 6.32 -3.34 7.64 -3 9 C-1.35 9 0.3 9 2 9 C2.12375 8.360625 2.2475 7.72125 2.375 7.0625 C2.58125 6.381875 2.7875 5.70125 3 5 C3.66 4.67 4.32 4.34 5 4 C5.33 6.97 5.66 9.94 6 13 C3.89646505 13.0810206 1.79204048 13.13919907 -0.3125 13.1875 C-2.07013672 13.23970703 -2.07013672 13.23970703 -3.86328125 13.29296875 C-7 13 -7 13 -8.89453125 11.70703125 C-10.75624219 8.8322338 -10.35457006 6.3093206 -10 3 C-7.7672032 -1.07157064 -4.21152194 -0.23838803 0 0 Z " fill="#394B85" transform="translate(254,89)"/>
<path d="M0 0 C1.98 0 3.96 0 6 0 C6 6.6 6 13.2 6 20 C4.02 20 2.04 20 0 20 C0 13.4 0 6.8 0 0 Z " fill="#534E6E" transform="translate(76,82)"/>
<path d="M0 0 C6.15234375 0.5859375 6.15234375 0.5859375 8 1 C9.59412284 4.18824568 9.10174735 7.62896662 9.0625 11.125 C9.05798828 11.87910156 9.05347656 12.63320312 9.04882812 13.41015625 C9.03703499 15.27347127 9.01909942 17.13674555 9 19 C7.02 19 5.04 19 3 19 C2.67 13.39 2.34 7.78 2 2 C1.34 2 0.68 2 0 2 C0 1.34 0 0.68 0 0 Z " fill="#4A517E" transform="translate(94,83)"/>
<path d="M0 0 C6.75 -0.125 6.75 -0.125 9 1 C9 2.65 9 4.3 9 6 C9.66 5.67 10.32 5.34 11 5 C12.99960012 4.960008 15.00047242 4.95653201 17 5 C17.33 5.99 17.66 6.98 18 8 C16.88625 8.12375 15.7725 8.2475 14.625 8.375 C10.96896323 8.6465813 10.96896323 8.6465813 9 11 C8.59952556 13.32275177 8.2602896 15.65739357 8 18 C7.34 18 6.68 18 6 18 C5.67 17.01 5.34 16.02 5 15 C3.68 16.98 2.36 18.96 1 21 C0 19 0 19 0.43725586 17.12060547 C0.82216187 16.00516357 0.82216187 16.00516357 1.21484375 14.8671875 C1.48876953 14.06152344 1.76269531 13.25585938 2.04492188 12.42578125 C2.48674805 11.16314453 2.48674805 11.16314453 2.9375 9.875 C3.37352539 8.60076172 3.37352539 8.60076172 3.81835938 7.30078125 C4.53893001 5.19813251 5.26638315 3.09812523 6 1 C3.56282742 1.27034634 3.56282742 1.27034634 1 2 C0.01 3.485 0.01 3.485 -1 5 C-0.67 3.35 -0.34 1.7 0 0 Z " fill="#E2E8F1" transform="translate(236,81)"/>
<path d="M0 0 C-0.90363281 0.26554687 -1.80726562 0.53109375 -2.73828125 0.8046875 C-4.50751953 1.33449219 -4.50751953 1.33449219 -6.3125 1.875 C-8.07013672 2.39707031 -8.07013672 2.39707031 -9.86328125 2.9296875 C-13.10911725 3.88765453 -13.10911725 3.88765453 -16 6 C-16.73343428 9.06556598 -16.73343428 9.06556598 -17 12 C-17.66 12 -18.32 12 -19 12 C-18.98839844 13.22976562 -18.97679687 14.45953125 -18.96484375 15.7265625 C-18.95545978 17.35937347 -18.94636023 18.9921861 -18.9375 20.625 C-18.92912109 21.43324219 -18.92074219 22.24148437 -18.91210938 23.07421875 C-18.89400916 27.5268715 -19.22975628 31.60507997 -20 36 C-20.25843731 39.28835493 -20.41115697 42.58018776 -20.5625 45.875 C-20.60568359 46.75414062 -20.64886719 47.63328125 -20.69335938 48.5390625 C-20.79869339 50.69255797 -20.89977649 52.84626064 -21 55 C-21.66 54.67 -22.32 54.34 -23 54 C-22.75886211 49.59283679 -22.51022337 45.18617154 -22.25537109 40.77978516 C-22.17010142 39.28868369 -22.08669179 37.79747439 -22.00537109 36.30615234 C-21.56408932 28.23777814 -21.01428446 20.18815254 -20.1171875 12.15625 C-19.97651855 10.87556641 -19.83584961 9.59488281 -19.69091797 8.27539062 C-18.99526648 4.97756008 -18.36038887 3.36470074 -16 1 C-13.22265625 0.13671875 -13.22265625 0.13671875 -10.0625 -0.3125 C-8.50208984 -0.55419922 -8.50208984 -0.55419922 -6.91015625 -0.80078125 C-4.26240258 -0.98203687 -2.4905419 -0.8341815 0 0 Z " fill="#DCA25E" transform="translate(42,60)"/>
<path d="M0 0 C1.03125 0.00322266 2.0625 0.00644531 3.125 0.00976562 C4.20523438 0.01814453 5.28546875 0.02652344 6.3984375 0.03515625 C8.03039062 0.04192383 8.03039062 0.04192383 9.6953125 0.04882812 C12.38807539 0.06063849 15.08072938 0.07710847 17.7734375 0.09765625 C17.7734375 0.42765625 17.7734375 0.75765625 17.7734375 1.09765625 C22.0634375 1.42765625 26.3534375 1.75765625 30.7734375 2.09765625 C30.7734375 2.42765625 30.7734375 2.75765625 30.7734375 3.09765625 C29.61521484 3.11747559 28.45699219 3.13729492 27.26367188 3.15771484 C22.88734398 3.2348936 18.51130124 3.32341768 14.13525391 3.41503906 C12.25608019 3.45287262 10.3768452 3.48779659 8.49755859 3.51953125 C-2.10855635 3.70073556 -12.49035491 4.14883975 -22.99414062 5.68212891 C-25.79040495 6.04158826 -28.41369312 6.1794876 -31.2265625 6.09765625 C-24.83692829 2.78451259 -19.72397756 1.76746417 -12.49023438 1.44335938 C-8.06933522 1.21901524 -4.43479603 -0.02436701 0 0 Z " fill="#E4AC6A" transform="translate(113.2265625,2.90234375)"/>
<path d="M0 0 C0 0.99 0 1.98 0 3 C0.66 3 1.32 3 2 3 C2 4.98 2 6.96 2 9 C-2.75 10.125 -2.75 10.125 -5 9 C-5 7.02 -5 5.04 -5 3 C-6.32 3.33 -7.64 3.66 -9 4 C-8.45160938 6.98220128 -8.45160938 6.98220128 -7 10 C-3.98220128 11.45160938 -3.98220128 11.45160938 -1 12 C-1 12.33 -1 12.66 -1 13 C-6.36842105 13.35789474 -6.36842105 13.35789474 -8.875 11.9375 C-10.64273274 8.8930714 -10.36823916 6.4368988 -10 3 C-7.7672032 -1.07157064 -4.21152194 -0.23838803 0 0 Z " fill="#4F4965" transform="translate(132,89)"/>
<path d="M0 0 C0.99 0.33 1.98 0.66 3 1 C3 5.95 3 10.9 3 16 C-5.3984375 16.1953125 -5.3984375 16.1953125 -8 16 C-10 14 -10 14 -10.125 11.375 C-10.08375 10.59125 -10.0425 9.8075 -10 9 C-8.68 8.67 -7.36 8.34 -6 8 C-6 9.98 -6 11.96 -6 14 C-3.69 14 -1.38 14 1 14 C1 12.02 1 10.04 1 8 C0.34 8 -0.32 8 -1 8 C-0.67 5.36 -0.34 2.72 0 0 Z " fill="#3A4883" transform="translate(133,84)"/>
<path d="M0 0 C1.97330616 0.00502443 3.94661355 0.00958567 5.91992188 0.01367188 C10.71747885 0.02460412 15.51497556 0.0418169 20.3125 0.0625 C20.3125 0.3925 20.3125 0.7225 20.3125 1.0625 C19.10601807 1.08755615 17.89953613 1.1126123 16.65649414 1.13842773 C12.19674339 1.23232523 7.73715487 1.33258833 3.27758789 1.43481445 C1.34435815 1.47823041 -0.58891159 1.51990042 -2.5222168 1.55981445 C-5.29488202 1.61735631 -8.06734457 1.6810962 -10.83984375 1.74609375 C-11.70963364 1.76280624 -12.57942352 1.77951874 -13.47557068 1.79673767 C-17.39865966 1.51276213 -17.39865966 1.51276213 -20.6875 3.0625 C-22.32006758 3.21964654 -23.95885338 3.31335414 -25.59765625 3.37890625 C-27.08168945 3.44174805 -27.08168945 3.44174805 -28.59570312 3.50585938 C-30.15708008 3.56483398 -30.15708008 3.56483398 -31.75 3.625 C-32.79478516 3.66818359 -33.83957031 3.71136719 -34.91601562 3.75585938 C-37.50636884 3.86231225 -40.09682186 3.9643276 -42.6875 4.0625 C-42.6875 3.7325 -42.6875 3.4025 -42.6875 3.0625 C-41.25182267 2.74173044 -39.81378018 2.43155192 -38.375 2.125 C-37.57449219 1.95097656 -36.77398437 1.77695313 -35.94921875 1.59765625 C-24.02300005 -0.35910059 -12.04651508 -0.05350417 0 0 Z " fill="#FEF5DF" transform="translate(124.6875,5.9375)"/>
<path d="M0 0 C0.66 0.33 1.32 0.66 2 1 C2 2.98 2 4.96 2 7 C5.47147842 7.74957157 5.47147842 7.74957157 9 8 C9 9.98 9 11.96 9 14 C5.9465865 14.29359745 3.04256578 14.4451258 0 14 C-2.5625 11.5 -2.5625 11.5 -4 9 C-3.01 9 -2.02 9 -1 9 C-1.020625 7.700625 -1.04125 6.40125 -1.0625 5.0625 C-1.08399454 3.70834367 -1.07148199 2.35243917 -1 1 C-0.67 0.67 -0.34 0.34 0 0 Z " fill="#4D4B71" transform="translate(111,88)"/>
<path d="M0 0 C0.33 0 0.66 0 1 0 C1.33 3.96 1.66 7.92 2 12 C2.99 11.34 3.98 10.68 5 10 C5.99 10.33 6.98 10.66 8 11 C7.50886719 11.37769531 7.01773437 11.75539063 6.51171875 12.14453125 C4.42102117 14.71063292 4.69737798 16.42570933 4.8125 19.6875 C4.83957031 20.68136719 4.86664063 21.67523438 4.89453125 22.69921875 C4.92933594 23.45847656 4.96414063 24.21773437 5 25 C3.68 24.67 2.36 24.34 1 24 C1 25.65 1 27.3 1 29 C0.67 29 0.34 29 0 29 C0 19.43 0 9.86 0 0 Z " fill="#DBE2F1" transform="translate(281,73)"/>
<path d="M0 0 C0 0.33 0 0.66 0 1 C-0.79921875 0.98839844 -1.5984375 0.97679687 -2.421875 0.96484375 C-17.88955202 0.00740203 -17.88955202 0.00740203 -31.25 6.125 C-31.8275 6.74375 -32.405 7.3625 -33 8 C-31.82220704 4.64782003 -30.91841327 2.11333375 -28 0 C-19.49786512 -3.58979028 -8.56014095 -3.26100608 0 0 Z " fill="#DFA764" transform="translate(66,14)"/>
<path d="M0 0 C4.55555556 0.55555556 4.55555556 0.55555556 6 2 C6.1875 4.9375 6.1875 4.9375 6 8 C5.34 8.66 4.68 9.32 4 10 C-0.55555556 9.44444444 -0.55555556 9.44444444 -2 8 C-2.1875 5.0625 -2.1875 5.0625 -2 2 C-1.34 1.34 -0.68 0.68 0 0 Z " fill="#ECF2F8" transform="translate(211,87)"/>
<path d="M0 0 C1.65 0 3.3 0 5 0 C4.91800134 4.10491639 4.80526599 8.20846632 4.6875 12.3125 C4.66494141 13.46041016 4.64238281 14.60832031 4.61914062 15.79101562 C4.38628319 23.26362232 3.33364864 29.89269235 1 37 C0.67 37 0.34 37 0 37 C-0.43146759 24.9189074 1.64618919 12.81913514 4 1 C2.68 0.67 1.36 0.34 0 0 Z " fill="#FBEDD1" transform="translate(103,20)"/>
<path d="M0 0 C0.99 0 1.98 0 3 0 C3 4.29 3 8.58 3 13 C4.32 13 5.64 13 7 13 C7.22245393 14.60226955 7.42746669 16.20696767 7.625 17.8125 C7.74101563 18.70582031 7.85703125 19.59914063 7.9765625 20.51953125 C8 23 8 23 6 26 C6 23.03 6 20.06 6 17 C5.01 17 4.02 17 3 17 C3 16.34 3 15.68 3 15 C2.34 14.67 1.68 14.34 1 14 C-0.04976964 10.85069107 -0.10131595 8.61185544 -0.0625 5.3125 C-0.05347656 4.31863281 -0.04445313 3.32476562 -0.03515625 2.30078125 C-0.02355469 1.54152344 -0.01195313 0.78226562 0 0 Z " fill="#E39B4E" transform="translate(93,89)"/>
<path d="M0 0 C2.5 0.125 2.5 0.125 3.5 1.125 C3.6328125 2.9375 3.6328125 2.9375 3.625 5.125 C3.62757813 5.846875 3.63015625 6.56875 3.6328125 7.3125 C3.5 9.125 3.5 9.125 2.5 10.125 C0 10.25 0 10.25 -2.5 10.125 C-3.5 9.125 -3.5 9.125 -3.6328125 7.3125 C-3.63023437 6.590625 -3.62765625 5.86875 -3.625 5.125 C-3.62757813 4.403125 -3.63015625 3.68125 -3.6328125 2.9375 C-3.42186711 0.05871588 -2.89175802 0.1445879 0 0 Z " fill="#EAF0F7" transform="translate(294.5,86.875)"/>
<path d="M0 0 C0.66 0 1.32 0 2 0 C2.33 3.3 2.66 6.6 3 10 C4.32 10.33 5.64 10.66 7 11 C7 10.34 7 9.68 7 9 C6.34 9 5.68 9 5 9 C5.33 8.34 5.66 7.68 6 7 C9.465 8.485 9.465 8.485 13 10 C12.67 10.99 12.34 11.98 12 13 C6.25 13.125 6.25 13.125 4 12 C4.33 13.98 4.66 15.96 5 18 C3.68 17.67 2.36 17.34 1 17 C0.67 11.39 0.34 5.78 0 0 Z " fill="#C68F64" transform="translate(137,84)"/>
<path d="M0 0 C0.33 0 0.66 0 1 0 C1.02685938 2.14576637 1.04633088 4.29162645 1.0625 6.4375 C1.07410156 7.63246094 1.08570312 8.82742187 1.09765625 10.05859375 C1 13 1 13 0 14 C-1.78940972 14.09908783 -3.58285508 14.12970379 -5.375 14.125 C-6.35210937 14.12757812 -7.32921875 14.13015625 -8.3359375 14.1328125 C-11 14 -11 14 -14 13 C-16.39254576 12.77439324 -18.78928123 12.59151405 -21.1875 12.4375 C-22.45980469 12.35371094 -23.73210938 12.26992188 -25.04296875 12.18359375 C-26.50669922 12.09271484 -26.50669922 12.09271484 -28 12 C-28 11.67 -28 11.34 -28 11 C-27.21761963 11.00523682 -26.43523926 11.01047363 -25.62915039 11.01586914 C-22.10694167 11.03657106 -18.5847457 11.04963838 -15.0625 11.0625 C-13.21495117 11.07506836 -13.21495117 11.07506836 -11.33007812 11.08789062 C-10.16025391 11.09111328 -8.99042969 11.09433594 -7.78515625 11.09765625 C-6.70113525 11.10289307 -5.61711426 11.10812988 -4.50024414 11.11352539 C-2.05950052 11.28426897 -2.05950052 11.28426897 -1 10 C-0.76712992 8.31816052 -0.58735834 6.6287584 -0.4375 4.9375 C-0.35371094 4.01839844 -0.26992187 3.09929688 -0.18359375 2.15234375 C-0.09271484 1.08693359 -0.09271484 1.08693359 0 0 Z " fill="#DFA159" transform="translate(70,47)"/>
<path d="M0 0 C0.33 0 0.66 0 1 0 C1.23268915 6.28260706 0.40454548 11.88019467 -1 18 C-0.0925 17.505 0.815 17.01 1.75 16.5 C6.95973205 14.21201459 12.425617 14.75285987 18 15 C18 15.33 18 15.66 18 16 C17.20335938 16.12117188 16.40671875 16.24234375 15.5859375 16.3671875 C10.19722455 17.21941704 5.14966394 18.15140269 0 20 C-0.99 20 -1.98 20 -3 20 C-4.49479382 16.11353607 -3.34699273 13.82829512 -2 10 C-1.25953522 6.68033242 -0.6211906 3.34385581 0 0 Z " fill="#DBA460" transform="translate(30,30)"/>
<path d="M0 0 C2.625 0.375 2.625 0.375 5 1 C5 3.64 5 6.28 5 9 C2.625 9.625 2.625 9.625 0 10 C-2 8 -2 8 -2.25 5 C-2 2 -2 2 0 0 Z " fill="#EAEEF8" transform="translate(271,87)"/>
<path d="M0 0 C3.96 0 7.92 0 12 0 C12.33 0.66 12.66 1.32 13 2 C11.5625 4.625 11.5625 4.625 10 7 C9.34 6.34 8.68 5.68 8 5 C5.31160615 4.73008094 2.70858064 4.91262643 0 5 C0 3.35 0 1.7 0 0 Z " fill="#40518C" transform="translate(245,82)"/>
<path d="M0 0 C0.33 0 0.66 0 1 0 C1 5.61 1 11.22 1 17 C-0.32 16.34 -1.64 15.68 -3 15 C-3.56229448 4.27475338 -3.56229448 4.27475338 0 0 Z " fill="#374989" transform="translate(178,84)"/>
<path d="M0 0 C-0.75 2.375 -0.75 2.375 -2 5 C-2.680625 5.33 -3.36125 5.66 -4.0625 6 C-5.0215625 6.495 -5.0215625 6.495 -6 7 C-6.81171228 9.55519921 -6.81171228 9.55519921 -7 12 C-7.33 12 -7.66 12 -8 12 C-8.103125 10.88625 -8.20625 9.7725 -8.3125 8.625 C-8.539375 7.42875 -8.76625 6.2325 -9 5 C-9.99 4.34 -10.98 3.68 -12 3 C-8.2391768 -0.7608232 -5.0273023 -0.25136512 0 0 Z " fill="#44538D" transform="translate(276,82)"/>
<path d="M0 0 C0.33 0 0.66 0 1 0 C1.02685938 2.14576637 1.04633088 4.29162645 1.0625 6.4375 C1.07410156 7.63246094 1.08570313 8.82742187 1.09765625 10.05859375 C1 13 1 13 0 14 C-0.2362647 17.21019977 -0.39660302 20.41273872 -0.51757812 23.62890625 C-0.60924224 25.42413939 -0.79759856 27.21385947 -1 29 C-1.66 29.33 -2.32 29.66 -3 30 C-3.25107243 23.4163229 -2.88489094 17.02578322 -2.0625 10.5 C-1.97564941 9.80583984 -1.88879883 9.11167969 -1.79931641 8.39648438 C-1.41032923 5.46577879 -0.93749145 2.81247435 0 0 Z " fill="#FCEFD2" transform="translate(14,26)"/>
<path d="M0 0 C1.32 0.33 2.64 0.66 4 1 C4 5.62 4 10.24 4 15 C3.34 14.34 2.68 13.68 2 13 C1.34 14.32 0.68 15.64 0 17 C-0.99 16.67 -1.98 16.34 -3 16 C-2.505 15.484375 -2.01 14.96875 -1.5 14.4375 C0.84850193 10.62118436 0.44934836 6.89724863 -0.5625 2.625 C-0.706875 2.08875 -0.85125 1.5525 -1 1 C-0.67 0.67 -0.34 0.34 0 0 Z " fill="#E6EDF5" transform="translate(303,84)"/>
<path d="M0 0 C0.33 0 0.66 0 1 0 C1.33 5.94 1.66 11.88 2 18 C2.66 17.67 3.32 17.34 4 17 C4.46751788 14.64400765 4.46751788 14.64400765 4.625 11.9375 C4.73714844 10.55884766 4.73714844 10.55884766 4.8515625 9.15234375 C4.90054688 8.44207031 4.94953125 7.73179688 5 7 C5.33 7 5.66 7 6 7 C6 11.29 6 15.58 6 20 C4.02 20 2.04 20 0 20 C0 13.4 0 6.8 0 0 Z " fill="#656F94" transform="translate(189,82)"/>
<path d="M0 0 C0.33 0 0.66 0 1 0 C0.67 6.27 0.34 12.54 0 19 C0.99 19 1.98 19 3 19 C3 19.66 3 20.32 3 21 C1.02 21 -0.96 21 -3 21 C-2.22095672 6.21867882 -2.22095672 6.21867882 0 0 Z " fill="#DEA260" transform="translate(115,60)"/>
<path d="M0 0 C0.33 0 0.66 0 1 0 C1 8.25 1 16.5 1 25 C0.01 25.33 -0.98 25.66 -2 26 C-2.38064163 17.20294908 -1.20731692 8.68836995 0 0 Z " fill="#F7E5CA" transform="translate(102,57)"/>
<path d="M0 0 C0.33 0 0.66 0 1 0 C0.8899083 3.41731792 0.75932939 6.83355574 0.625 10.25 C0.5940625 11.21808594 0.563125 12.18617187 0.53125 13.18359375 C0.49257812 14.11816406 0.45390625 15.05273438 0.4140625 16.015625 C0.3826416 16.87446289 0.3512207 17.73330078 0.31884766 18.61816406 C-0.02054841 21.15349948 -0.81711606 22.75508581 -2 25 C-2.38749213 27.32495277 -2.72982839 29.65851268 -3 32 C-3.66 32 -4.32 32 -5 32 C-4.42270858 25.53433609 -3.34818254 19.21585276 -2.10424805 12.84960938 C-1.27311486 8.57551089 -0.58254146 4.31304734 0 0 Z " fill="#DCA561" transform="translate(121,28)"/>
<path d="M0 0 C1.32 0 2.64 0 4 0 C2.88537118 2.50791484 1.78242451 4.24394828 -0.0625 6.3125 C-2.40639436 9.5637083 -2.69033018 12.05170974 -3 16 C-2.01 16.33 -1.02 16.66 0 17 C-1.65 17.33 -3.3 17.66 -5 18 C-4.74319906 10.89945397 -4.06612857 5.90244471 0 0 Z " fill="#FDF2DC" transform="translate(77,10)"/>
<path d="M0 0 C0.33 0 0.66 0 1 0 C1.33 1.98 1.66 3.96 2 6 C2.99 6 3.98 6 5 6 C5.33 5.34 5.66 4.68 6 4 C7.98 4.99 9.96 5.98 12 7 C11.67 7.99 11.34 8.98 11 10 C3.75725594 9.5171504 3.75725594 9.5171504 0.4375 7.25 C-1 5 -1 5 -0.75 2.25 C-0.5025 1.5075 -0.255 0.765 0 0 Z " fill="#51547A" transform="translate(142,84)"/>
<path d="M0 0 C-0.57584432 2.38564077 -1.22227595 4.66682784 -2 7 C-3.98 7 -5.96 7 -8 7 C-8.33 5.35 -8.66 3.7 -9 2 C-2.25 0 -2.25 0 0 0 Z " fill="#E9963C" transform="translate(122,88)"/>
<path d="M0 0 C0.33 0 0.66 0 1 0 C1.66 3.63 2.32 7.26 3 11 C1.68 11.33 0.36 11.66 -1 12 C-1 12.66 -1 13.32 -1 14 C-4.96 14 -8.92 14 -13 14 C-8.46780033 11.73390016 -6.82227075 12.07264024 -2 13 C-2.061875 11.453125 -2.061875 11.453125 -2.125 9.875 C-2.00424851 6.13170373 -1.35127982 3.46265453 0 0 Z " fill="#E3E9F5" transform="translate(262,89)"/>
<path d="M0 0 C4.62 0 9.24 0 14 0 C14 0.66 14 1.32 14 2 C8.06 2.495 8.06 2.495 2 3 C2 4.65 2 6.3 2 8 C1.01 8.495 1.01 8.495 0 9 C0 6.03 0 3.06 0 0 Z " fill="#36488C" transform="translate(57,75)"/>
<path d="M0 0 C1.9480957 0.14018555 1.9480957 0.14018555 3.93554688 0.28320312 C5.30730158 0.38789096 6.67904626 0.49271036 8.05078125 0.59765625 C9.43420446 0.69911915 10.81766775 0.80003705 12.20117188 0.90039062 C15.58897486 1.14827865 18.97626637 1.4017576 22.36328125 1.66015625 C22.36328125 1.99015625 22.36328125 2.32015625 22.36328125 2.66015625 C21.67814453 2.65491943 20.99300781 2.64968262 20.28710938 2.64428711 C17.14584288 2.6233418 14.00459114 2.61044065 10.86328125 2.59765625 C9.24679688 2.58508789 9.24679688 2.58508789 7.59765625 2.57226562 C1.74999743 2.5544374 -3.85535546 2.76909662 -9.63671875 3.66015625 C-9.63671875 2.67015625 -9.63671875 1.68015625 -9.63671875 0.66015625 C-6.106447 -0.516601 -3.70826393 -0.27528597 0 0 Z " fill="#F6E2C3" transform="translate(123.63671875,17.33984375)"/>
<path d="M0 0 C1.98 0 3.96 0 6 0 C6 1.98 6 3.96 6 6 C1.25 7.125 1.25 7.125 -1 6 C-0.67 4.02 -0.34 2.04 0 0 Z " fill="#5B536E" transform="translate(128,92)"/>
<path d="M0 0 C0 3.3 0 6.6 0 10 C-0.33 10 -0.66 10 -1 10 C-1.33 7.03 -1.66 4.06 -2 1 C-6.24733832 0.01857619 -10.47324533 -0.30920379 -14.8125 -0.5625 C-15.85180664 -0.62727539 -15.85180664 -0.62727539 -16.91210938 -0.69335938 C-18.60788686 -0.79861453 -20.30392052 -0.89972863 -22 -1 C-22 -1.33 -22 -1.66 -22 -2 C-6.92307692 -4.15384615 -6.92307692 -4.15384615 0 0 Z " fill="#F8E2BE" transform="translate(70,47)"/>
<path d="M0 0 C0.33 0 0.66 0 1 0 C1 2.31 1 4.62 1 7 C0.34 6.67 -0.32 6.34 -1 6 C-3.40560273 5.84391977 -5.78702772 5.74195542 -8.1953125 5.68359375 C-8.90275604 5.66281265 -9.61019958 5.64203156 -10.33908081 5.62062073 C-12.60095425 5.55518922 -14.86294462 5.49627026 -17.125 5.4375 C-18.65756422 5.39430867 -20.19011657 5.35069418 -21.72265625 5.30664062 C-25.48165073 5.19951445 -29.24076292 5.0982291 -33 5 C-33 4.67 -33 4.34 -33 4 C-22.11 3.67 -11.22 3.34 0 3 C0 2.01 0 1.02 0 0 Z " fill="#D89B52" transform="translate(145,0)"/>
<path d="M0 0 C4.92274678 4.7639485 4.92274678 4.7639485 5.1875 9 C5 12 5 12 3 14 C2.67 11.69 2.34 9.38 2 7 C1.01 7.99 0.02 8.98 -1 10 C-1.66 8.02 -2.32 6.04 -3 4 C-2.01 4 -1.02 4 0 4 C0 2.68 0 1.36 0 0 Z " fill="#4A5A88" transform="translate(218,83)"/>
<path d="M0 0 C0.99 0.66 1.98 1.32 3 2 C3.4375 5.375 3.4375 5.375 3 9 C1 11.4375 1 11.4375 -1 13 C-2.20577428 8.05632546 -1.6290678 4.79137588 0 0 Z " fill="#3B4B85" transform="translate(301,87)"/>
<path d="M0 0 C0.33 0.66 0.66 1.32 1 2 C-1.31 1.67 -3.62 1.34 -6 1 C-6 1.66 -6 2.32 -6 3 C-5.34 3 -4.68 3 -4 3 C-4 3.66 -4 4.32 -4 5 C-5.65 5.33 -7.3 5.66 -9 6 C-9.33 5.01 -9.66 4.02 -10 3 C-10.66 2.67 -11.32 2.34 -12 2 C-12 3.65 -12 5.3 -12 7 C-12.33 7 -12.66 7 -13 7 C-13 5.02 -13 3.04 -13 1 C-8.60563789 0.14256349 -4.47427924 -0.08948558 0 0 Z " fill="#474973" transform="translate(100,82)"/>
<path d="M0 0 C3.875 1.875 3.875 1.875 5 3 C5.04063832 4.66617115 5.042721 6.33388095 5 8 C3.02 8 1.04 8 -1 8 C-0.67 5.36 -0.34 2.72 0 0 Z " fill="#384A87" transform="translate(231,94)"/>
<path d="M0 0 C1.093125 0.0825 2.18625 0.165 3.3125 0.25 C3.3125 1.24 3.3125 2.23 3.3125 3.25 C1.3325 4.24 1.3325 4.24 -0.6875 5.25 C-0.6875 6.57 -0.6875 7.89 -0.6875 9.25 C-1.3475 9.25 -2.0075 9.25 -2.6875 9.25 C-2.6875 7.27 -2.6875 5.29 -2.6875 3.25 C-4.0075 3.58 -5.3275 3.91 -6.6875 4.25 C-4.79150483 0.68106792 -4.16790733 0.28256999 0 0 Z " fill="#3F4F82" transform="translate(250.6875,88.75)"/>
<path d="M0 0 C2.0625 0.4375 2.0625 0.4375 4 1 C4.33 2.65 4.66 4.3 5 6 C3.34385343 6.38218767 1.67542976 6.71395102 0 7 C-1 6 -1 6 -1.125 3.5 C-1 1 -1 1 0 0 Z " fill="#574D62" transform="translate(77,73)"/>
<path d="M0 0 C2.64 0 5.28 0 8 0 C8 1.98 8 3.96 8 6 C6.02 6 4.04 6 2 6 C2 4 2 4 4 2 C2.68 2 1.36 2 0 2 C0 1.34 0 0.68 0 0 Z " fill="#5B6891" transform="translate(194,82)"/>
<path d="M0 0 C0 0.33 0 0.66 0 1 C-1.2375 1.226875 -2.475 1.45375 -3.75 1.6875 C-7.92034525 2.7005094 -9.67553136 4.31959133 -12 8 C-13 7 -13 7 -13.0625 3.9375 C-13.041875 2.968125 -13.02125 1.99875 -13 1 C-8.59085217 -0.10228696 -4.51617599 -0.07654536 0 0 Z " fill="#E1E8F2" transform="translate(215,81)"/>
<path d="M0 0 C0.33 0 0.66 0 1 0 C1.34615998 5.65394631 0.43425238 9.03006806 -2 14 C-4.31 13.67 -6.62 13.34 -9 13 C-9 12.67 -9 12.34 -9 12 C-8.236875 11.95875 -7.47375 11.9175 -6.6875 11.875 C-3.73632316 11.2292266 -3.73632316 11.2292266 -2.25 8.25 C-1.17635516 5.45852341 -0.43372722 2.94934508 0 0 Z " fill="#FAE9CA" transform="translate(68,0)"/>
<path d="M0 0 C0.33 0 0.66 0 1 0 C1.01458252 0.62044189 1.02916504 1.24088379 1.04418945 1.88012695 C1.11866588 4.69154633 1.21532564 7.50177749 1.3125 10.3125 C1.33505859 11.28896484 1.35761719 12.26542969 1.38085938 13.27148438 C1.41630859 14.20927734 1.45175781 15.14707031 1.48828125 16.11328125 C1.51446533 16.97735596 1.54064941 17.84143066 1.56762695 18.73168945 C2.07665372 21.40213987 2.92329908 22.31011183 5 24 C3.35 24 1.7 24 0 24 C0 16.08 0 8.16 0 0 Z " fill="#414E78" transform="translate(174,78)"/>
<path d="M0 0 C2.97 0.495 2.97 0.495 6 1 C6 1.99 6 2.98 6 4 C6.66 4 7.32 4 8 4 C8 6.64 8 9.28 8 12 C7.67 12 7.34 12 7 12 C6.79375 10.906875 6.5875 9.81375 6.375 8.6875 C5.34336062 4.7714341 5.34336062 4.7714341 1.875 3.0625 C0.92625 2.711875 -0.0225 2.36125 -1 2 C-0.67 1.34 -0.34 0.68 0 0 Z " fill="#D5DCEC" transform="translate(148,86)"/>
<path d="M0 0 C1.43739513 -0.02712066 2.87493863 -0.04645067 4.3125 -0.0625 C5.51326172 -0.07990234 5.51326172 -0.07990234 6.73828125 -0.09765625 C9 0 9 0 12 1 C12 2.98 12 4.96 12 7 C10.68 7 9.36 7 8 7 C8 5.02 8 3.04 8 1 C5.36 1 2.72 1 0 1 C0 0.67 0 0.34 0 0 Z " fill="#C38A57" transform="translate(112,81)"/>
<path d="M0 0 C-0.8125 1.9375 -0.8125 1.9375 -2 4 C-2.99 4.33 -3.98 4.66 -5 5 C-5 5.99 -5 6.98 -5 8 C-3.68 8.33 -2.36 8.66 -1 9 C-3.31 9 -5.62 9 -8 9 C-6.53333333 3.5 -6.53333333 3.5 -4 1.125 C-2 0 -2 0 0 0 Z " fill="#FBEFD3" transform="translate(11,56)"/>
<path d="M0 0 C0.33 0 0.66 0 1 0 C0.54034292 7.30696249 -0.88329723 13.99757448 -3 21 C-4.27593337 17.30793748 -3.79572621 14.31563496 -3.1875 10.5 C-3.01605469 9.3759375 -2.84460938 8.251875 -2.66796875 7.09375 C-2.08148266 4.37739337 -1.38499964 2.38430318 0 0 Z " fill="#FEF2D7" transform="translate(117,46)"/>
<path d="M0 0 C0.70189453 0.01353516 1.40378906 0.02707031 2.12695312 0.04101562 C3.85579829 0.07629818 5.58424765 0.13010417 7.3125 0.1875 C7.3125 0.5175 7.3125 0.8475 7.3125 1.1875 C6.49265625 1.23648437 5.6728125 1.28546875 4.828125 1.3359375 C3.75046875 1.41070312 2.6728125 1.48546875 1.5625 1.5625 C-0.03851563 1.66691406 -0.03851563 1.66691406 -1.671875 1.7734375 C-6.75928219 2.4719675 -9.22931049 4.48229696 -12.6875 8.1875 C-10.10951971 0.85017148 -7.6631862 -0.2790516 0 0 Z " fill="#E19F57" transform="translate(45.6875,13.8125)"/>
<path d="M0 0 C2.97 0 5.94 0 9 0 C9 1.98 9 3.96 9 6 C6.69 5.67 4.38 5.34 2 5 C2 4.34 2 3.68 2 3 C3.65 3 5.3 3 7 3 C7 2.34 7 1.68 7 1 C4.36 1.33 1.72 1.66 -1 2 C-0.67 1.34 -0.34 0.68 0 0 Z " fill="#534C65" transform="translate(111,82)"/>
<path d="M0 0 C0.33 0 0.66 0 1 0 C3.21538462 7.38461538 3.21538462 7.38461538 2.125 10.5 C1.75375 10.995 1.3825 11.49 1 12 C0.67 11.01 0.34 10.02 0 9 C-2.31 9 -4.62 9 -7 9 C-6.67 8.34 -6.34 7.68 -6 7 C-3.4375 6.375 -3.4375 6.375 -1 6 C-0.67 4.02 -0.34 2.04 0 0 Z " fill="#4C5A90" transform="translate(298,90)"/>
<path d="M0 0 C2.64 0.99 5.28 1.98 8 3 C7.67 3.99 7.34 4.98 7 6 C5.02 6 3.04 6 1 6 C0.67 5.34 0.34 4.68 0 4 C0.66 4 1.32 4 2 4 C2 3.34 2 2.68 2 2 C1.34 2 0.68 2 0 2 C0 1.34 0 0.68 0 0 Z " fill="#D7BBA4" transform="translate(142,91)"/>
<path d="M0 0 C1.65 0 3.3 0 5 0 C4.67 0.66 4.34 1.32 4 2 C4.27942455 3.67654729 4.60828247 5.34608154 5 7 C3.35 6.67 1.7 6.34 0 6 C0 4.02 0 2.04 0 0 Z " fill="#384886" transform="translate(143,84)"/>
<path d="M0 0 C0 2.97 0 5.94 0 9 C-0.66 9 -1.32 9 -2 9 C-2.33 9.66 -2.66 10.32 -3 11 C-3 7.7 -3 4.4 -3 1 C-1 0 -1 0 0 0 Z " fill="#35498A" transform="translate(208,87)"/>
<path d="M0 0 C0.33 0.66 0.66 1.32 1 2 C-1.40983607 6.70491803 -1.40983607 6.70491803 -4 8 C-4.40729228 10.32156597 -4.74438677 12.6568787 -5 15 C-5.66 15 -6.32 15 -7 15 C-6.75648872 8.05992846 -4.93291958 4.82732192 0 0 Z " fill="#FBEBCE" transform="translate(22,10)"/>
<path d="M0 0 C3.3 0 6.6 0 10 0 C7.31158141 2.25245881 5.35358125 3.88213958 2 5 C1.34 3.35 0.68 1.7 0 0 Z " fill="#E19C4F" transform="translate(26,0)"/>
<path d="M0 0 C0.66 0 1.32 0 2 0 C2.33 2.97 2.66 5.94 3 9 C1.68 8.67 0.36 8.34 -1 8 C-1.125 2.25 -1.125 2.25 0 0 Z " fill="#36498A" transform="translate(108,89)"/>
<path d="M0 0 C4.62 0 9.24 0 14 0 C14 0.33 14 0.66 14 1 C9.05 1.66 4.1 2.32 -1 3 C-0.67 2.01 -0.34 1.02 0 0 Z " fill="#FAE9CC" transform="translate(88,21)"/>
<path d="M0 0 C0.66 0.66 1.32 1.32 2 2 C1.9765625 4.1640625 1.9765625 4.1640625 1.625 6.625 C1.51414063 7.44226563 1.40328125 8.25953125 1.2890625 9.1015625 C1.19367187 9.72804688 1.09828125 10.35453125 1 11 C0.34 11 -0.32 11 -1 11 C-1.02688151 9.35425434 -1.04634123 7.70838587 -1.0625 6.0625 C-1.07410156 5.14597656 -1.08570313 4.22945313 -1.09765625 3.28515625 C-1 1 -1 1 0 0 Z " fill="#334990" transform="translate(58,88)"/>
<path d="M0 0 C3.3 0 6.6 0 10 0 C10 0.33 10 0.66 10 1 C8.2984375 1.433125 8.2984375 1.433125 6.5625 1.875 C5.386875 2.24625 4.21125 2.6175 3 3 C2.67 3.66 2.34 4.32 2 5 C1.34 5 0.68 5 0 5 C0 3.35 0 1.7 0 0 Z " fill="#526189" transform="translate(245,82)"/>
<path d="M0 0 C0.99 0.33 1.98 0.66 3 1 C2.38125 1.0825 1.7625 1.165 1.125 1.25 C0.42375 1.4975 -0.2775 1.745 -1 2 C-1.309375 2.66 -1.61875 3.32 -1.9375 4 C-2.288125 4.66 -2.63875 5.32 -3 6 C-5.625 6.75 -5.625 6.75 -8 7 C-5.42215154 4.35247996 -3.08351902 2.05567935 0 0 Z " fill="#FDF0D6" transform="translate(31,3)"/>
<path d="M0 0 C0.33 0 0.66 0 1 0 C1 2.97 1 5.94 1 9 C1.99 9.33 2.98 9.66 4 10 C2.35 10.33 0.7 10.66 -1 11 C-0.67 7.37 -0.34 3.74 0 0 Z " fill="#F8E1B9" transform="translate(73,17)"/>
<path d="M0 0 C0 0.33 0 0.66 0 1 C-0.763125 1.04125 -1.52625 1.0825 -2.3125 1.125 C-5.32405113 1.77823609 -5.32405113 1.77823609 -6.8125 5.0625 C-7.204375 6.031875 -7.59625 7.00125 -8 8 C-8.68707555 5.50935112 -9 3.62113708 -9 1 C-5.8035914 -0.06546953 -3.34252724 -0.07427838 0 0 Z " fill="#DCA258" transform="translate(82,9)"/>
<path d="M0 0 C1.32 0 2.64 0 4 0 C2.125 5.75 2.125 5.75 1 8 C0.34 7.67 -0.32 7.34 -1 7 C-0.67 4.69 -0.34 2.38 0 0 Z " fill="#F9F4E1" transform="translate(146,0)"/>
<path d="M0 0 C1.65 0 3.3 0 5 0 C5 1.32 5 2.64 5 4 C3.35 4 1.7 4 0 4 C0 2.68 0 1.36 0 0 Z " fill="#C09075" transform="translate(128,93)"/>
<path d="M0 0 C1.98 0 3.96 0 6 0 C6.33 0.99 6.66 1.98 7 3 C4.69 3 2.38 3 0 3 C0 2.01 0 1.02 0 0 Z " fill="#D4DCED" transform="translate(247,86)"/>
<path d="M0 0 C0.99 0.33 1.98 0.66 3 1 C2.2575 1.5775 1.515 2.155 0.75 2.75 C-1.66087643 4.72253526 -3.84042701 6.76044282 -6 9 C-5.52797514 4.75177626 -3.03344482 2.80010291 0 0 Z " fill="#DBA25E" transform="translate(24,6)"/>
<path d="M0 0 C1.32 0 2.64 0 4 0 C4 1.32 4 2.64 4 4 C2.35 4 0.7 4 -1 4 C-0.67 2.68 -0.34 1.36 0 0 Z " fill="#E6ECF8" transform="translate(250,93)"/>
<path d="M0 0 C0.66 0 1.32 0 2 0 C2 1.98 2 3.96 2 6 C3.65 6 5.3 6 7 6 C7 6.33 7 6.66 7 7 C5.02 7 3.04 7 1 7 C0.34 5.02 -0.32 3.04 -1 1 C-0.67 0.67 -0.34 0.34 0 0 Z " fill="#E09B4B" transform="translate(70,22)"/>
<path d="M0 0 C0.33 0.99 0.66 1.98 1 3 C-1.6666419 4.33332095 -3.16680303 3.67102033 -6 3 C-6 2.34 -6 1.68 -6 1 C-4 0 -4 0 0 0 Z " fill="#34498C" transform="translate(299,83)"/>
<path d="M0 0 C1.32 0 2.64 0 4 0 C4.33 1.32 4.66 2.64 5 4 C2 4 2 4 -1 2 C-0.67 1.34 -0.34 0.68 0 0 Z " fill="#334887" transform="translate(214,83)"/>
<path d="M0 0 C0.66 0 1.32 0 2 0 C2 0.99 2 1.98 2 3 C-1 5 -1 5 -5 5 C-5 4.34 -5 3.68 -5 3 C-3.68 3 -2.36 3 -1 3 C-0.67 2.01 -0.34 1.02 0 0 Z " fill="#36498D" transform="translate(217,96)"/>
<path d="M0 0 C0.66 0 1.32 0 2 0 C2.125 5.75 2.125 5.75 1 8 C0.34 7.67 -0.32 7.34 -1 7 C-0.67 4.69 -0.34 2.38 0 0 Z " fill="#344987" transform="translate(229,86)"/>
<path d="M0 0 C1.4540625 0.0309375 1.4540625 0.0309375 2.9375 0.0625 C1.9784375 0.6503125 1.9784375 0.6503125 1 1.25 C-1.50028819 3.44722296 -1.71200425 4.82041433 -2.0625 8.0625 C-2.3925 8.0625 -2.7225 8.0625 -3.0625 8.0625 C-3.44313221 5.7364143 -3.77519945 3.40194736 -4.0625 1.0625 C-3.0625 0.0625 -3.0625 0.0625 0 0 Z " fill="#566691" transform="translate(271.0625,85.9375)"/>
<path d="M0 0 C0.66 0.33 1.32 0.66 2 1 C0.515 4.96 0.515 4.96 -1 9 C-1.33 9 -1.66 9 -2 9 C-2.125 5.625 -2.125 5.625 -2 2 C-1.34 1.34 -0.68 0.68 0 0 Z " fill="#F3F7FE" transform="translate(262,86)"/>
<path d="M0 0 C0 0.66 0 1.32 0 2 C-2.64 2.33 -5.28 2.66 -8 3 C-8 2.34 -8 1.68 -8 1 C-5.29120665 -0.35439668 -2.99066732 -0.06501451 0 0 Z " fill="#3A468D" transform="translate(118,83)"/>
</svg>
